<svg version="1.1" viewBox="0.0 0.0 1280.0 720.0" fill="none" stroke="none" stroke-linecap="square" stroke-miterlimit="10" xmlns:xlink="http://www.w3.org/1999/xlink" xmlns="http://www.w3.org/2000/svg"><clipPath id="g120bef08aba_0_1040.0"><path d="m0 0l1280.0 0l0 720.0l-1280.0 0l0 -720.0z" clip-rule="nonzero"/></clipPath><g clip-path="url(#g120bef08aba_0_1040.0)"><path fill="#00796b" d="m0 0l1280.0 0l0 720.0l-1280.0 0z" fill-rule="evenodd"/><path fill="#d9d9d9" d="m0.004288714 720.0105l0 -324.6299l1031.7166 324.6299z" fill-rule="evenodd"/><path fill="#233a44" d="m1280.0 720.0l0 -502.92914l-778.48816 502.92914z" fill-rule="evenodd"/><g filter="url(#shadowFilter-g120bef08aba_0_1040.1)"><use xlink:href="#g120bef08aba_0_1040.1" transform="matrix(1.01 0.0 0.0 1.01 -6.39991251181101 -3.600052493438308)"/></g><defs><filter id="shadowFilter-g120bef08aba_0_1040.1" filterUnits="userSpaceOnUse"><feGaussianBlur in="SourceAlpha" stdDeviation="8.0" result="blur"/><feComponentTransfer in="blur" color-interpolation-filters="sRGB"><feFuncR type="linear" slope="0" intercept="0.0"/><feFuncG type="linear" slope="0" intercept="0.0"/><feFuncB type="linear" slope="0" intercept="0.0"/><feFuncA type="linear" slope="0.4" intercept="0"/></feComponentTransfer></filter></defs><g id="g120bef08aba_0_1040.1"><path fill="#ffffff" d="m28.447945 28.871391l1223.0865 0l0 662.2677l-1223.0865 0z" fill-rule="evenodd"/></g><path fill="#000000" fill-opacity="0.0" d="m0 205.71654l1280.0 0l0 308.5669l-1280.0 0z" fill-rule="evenodd"/><path fill="#002060" d="m76.85956 286.4q-1.171875 0 -1.984375 -0.796875q-0.796875 -0.796875 -0.796875 -1.96875l0 -36.10936q0 -1.234375 0.796875 -2.0q0.8125 -0.78125 1.984375 -0.78125l9.65625 0q4.578125 0 8.328125 1.53125q3.765625 1.515625 6.53125 4.3125q2.78125 2.796875 4.265625 6.5937347q1.5 3.78125 1.5 8.375q0 4.578125 -1.5 8.390625q-1.484375 3.8125 -4.265625 6.609375q-2.765625 2.796875 -6.53125 4.328125q-3.75 1.515625 -8.328125 1.515625l-9.65625 0zm2.765625 -4.90625l6.890625 0q4.46875 0 7.90625 -2.046875q3.4375 -2.0625 5.40625 -5.65625q1.984375 -3.609375 1.984375 -8.234375q0 -4.703125 -1.984375 -8.265625q-1.96875 -3.5781097 -5.40625 -5.6093597q-3.4375 -2.03125 -7.90625 -2.03125l-6.890625 0l0 31.843735zm49.38086 5.125q-4.421875 0 -7.859375 -1.890625q-3.4375 -1.90625 -5.390625 -5.234375q-1.9375 -3.328125 -1.9375 -7.65625q0 -4.375 1.828125 -7.703125q1.84375 -3.328125 5.09375 -5.21875q3.25 -1.90625 7.46875 -1.90625q4.15625 0 7.140625 1.84375q3.0 1.84375 4.5625 5.078125q1.578125 3.21875 1.578125 7.4375q0 1.0 -0.703125 1.671875q-0.6875 0.671875 -1.75 0.671875l-21.484375 0l0 -4.265625l21.328125 0l-2.1875 1.484375q-0.0625 -2.65625 -1.078125 -4.765625q-1.0 -2.109375 -2.875 -3.328125q-1.859375 -1.234375 -4.53125 -1.234375q-3.03125 0 -5.203125 1.34375q-2.15625 1.328125 -3.28125 3.65625q-1.109375 2.3125 -1.109375 5.234375q0 2.9375 1.328125 5.234375q1.328125 2.28125 3.671875 3.625q2.359375 1.328125 5.390625 1.328125q1.65625 0 3.390625 -0.609375q1.734375 -0.609375 2.796875 -1.421875q0.796875 -0.578125 1.734375 -0.609375q0.9375 -0.03125 1.625 0.5625q0.90625 0.796875 0.953125 1.765625q0.0625 0.953125 -0.84375 1.640625q-1.8125 1.453125 -4.515625 2.359375q-2.6875 0.90625 -5.140625 0.90625zm30.022964 -0.21875q-2.65625 0 -4.796875 -1.359375q-2.125 -1.359375 -3.359375 -3.703125q-1.21875 -2.34375 -1.21875 -5.28125l0 -25.437485q0 -1.171875 0.734375 -1.921875q0.75 -0.75 1.921875 -0.75q1.171875 0 1.921875 0.75q0.75 0.75 0.75 1.921875l0 25.437485q0 2.125 1.171875 3.578125q1.171875 1.4375 2.875 1.4375l1.8125 0q0.96875 0 1.625 0.75q0.671875 0.734375 0.671875 1.90625q0 1.171875 -0.875 1.921875q-0.875 0.75 -2.265625 0.75l-0.96875 0zm-11.828125 -23.515625q-1.125 0 -1.828125 -0.640625q-0.6875 -0.640625 -0.6875 -1.59375q0 -1.078125 0.6875 -1.71875q0.703125 -0.640625 1.828125 -0.640625l12.3125 0q1.125 0 1.8125 0.640625q0.6875 0.640625 0.6875 1.71875q0 0.953125 -0.6875 1.59375q-0.6875 0.640625 -1.8125 0.640625l-12.3125 0zm36.30641 23.734375q-4.421875 0 -7.859375 -1.890625q-3.4375 -1.90625 -5.390625 -5.234375q-1.9375 -3.328125 -1.9375 -7.65625q0 -4.375 1.828125 -7.703125q1.84375 -3.328125 5.09375 -5.21875q3.25 -1.90625 7.46875 -1.90625q4.15625 0 7.140625 1.84375q3.0 1.84375 4.5625 5.078125q1.578125 3.21875 1.578125 7.4375q0 1.0 -0.703125 1.671875q-0.6875 0.671875 -1.75 0.671875l-21.484375 0l0 -4.265625l21.328125 0l-2.1875 1.484375q-0.0625 -2.65625 -1.078125 -4.765625q-1.0 -2.109375 -2.875 -3.328125q-1.859375 -1.234375 -4.53125 -1.234375q-3.03125 0 -5.203125 1.34375q-2.15625 1.328125 -3.28125 3.65625q-1.109375 2.3125 -1.109375 5.234375q0 2.9375 1.328125 5.234375q1.328125 2.28125 3.671875 3.625q2.359375 1.328125 5.390625 1.328125q1.65625 0 3.390625 -0.609375q1.734375 -0.609375 2.796875 -1.421875q0.796875 -0.578125 1.734375 -0.609375q0.9375 -0.03125 1.625 0.5625q0.90625 0.796875 0.953125 1.765625q0.0625 0.953125 -0.84375 1.640625q-1.8125 1.453125 -4.515625 2.359375q-2.6875 0.90625 -5.140625 0.90625zm31.581299 0q-4.265625 0 -7.609375 -1.9375q-3.328125 -1.953125 -5.21875 -5.28125q-1.890625 -3.34375 -1.890625 -7.5625q0 -4.3125 1.859375 -7.671875q1.875 -3.359375 5.125 -5.25q3.25 -1.90625 7.46875 -1.90625q3.140625 0 5.75 1.203125q2.609375 1.203125 4.6875 3.609375q0.75 0.84375 0.53125 1.75q-0.203125 0.90625 -1.15625 1.609375q-0.75 0.53125 -1.65625 0.34375q-0.90625 -0.1875 -1.65625 -0.9375q-2.609375 -2.765625 -6.5 -2.765625q-2.734375 0 -4.8125 1.25q-2.078125 1.25 -3.25 3.5q-1.171875 2.234375 -1.171875 5.265625q0 2.890625 1.203125 5.125q1.203125 2.234375 3.328125 3.546875q2.140625 1.296875 4.96875 1.296875q1.859375 0 3.265625 -0.453125q1.421875 -0.453125 2.59375 -1.40625q0.859375 -0.6875 1.765625 -0.765625q0.90625 -0.09375 1.59375 0.5q0.90625 0.75 1.015625 1.6875q0.109375 0.921875 -0.640625 1.671875q-3.84375 3.578125 -9.59375 3.578125zm29.425156 -0.21875q-2.65625 0 -4.796875 -1.359375q-2.125 -1.359375 -3.359375 -3.703125q-1.21875 -2.34375 -1.21875 -5.28125l0 -25.437485q0 -1.171875 0.734375 -1.921875q0.75 -0.75 1.921875 -0.75q1.171875 0 1.921875 0.75q0.75 0.75 0.75 1.921875l0 25.437485q0 2.125 1.171875 3.578125q1.171875 1.4375 2.875 1.4375l1.8125 0q0.96875 0 1.625 0.75q0.671875 0.734375 0.671875 1.90625q0 1.171875 -0.875 1.921875q-0.875 0.75 -2.265625 0.75l-0.96875 0zm-11.828125 -23.515625q-1.125 0 -1.828125 -0.640625q-0.6875 -0.640625 -0.6875 -1.59375q0 -1.078125 0.6875 -1.71875q0.703125 -0.640625 1.828125 -0.640625l12.3125 0q1.125 0 1.8125 0.640625q0.6875 0.640625 0.6875 1.71875q0 0.953125 -0.6875 1.59375q-0.6875 0.640625 -1.8125 0.640625l-12.3125 0zm25.853287 23.515625q-1.171875 0 -1.953125 -0.765625q-0.765625 -0.78125 -0.765625 -1.953125l0 -23.734375q0 -1.21875 0.765625 -1.96875q0.78125 -0.75 1.953125 -0.75q1.234375 0 1.96875 0.75q0.75 0.75 0.75 1.96875l0 23.734375q0 1.171875 -0.75 1.953125q-0.734375 0.765625 -1.96875 0.765625zm0 -33.92186q-1.4375 0 -2.484375 -1.03125q-1.03125 -1.046875 -1.03125 -2.484375q0 -1.4375 1.03125 -2.46875q1.046875 -1.046875 2.484375 -1.046875q1.4375 0 2.46875 1.046875q1.046875 1.03125 1.046875 2.46875q0 1.4375 -1.046875 2.484375q-1.03125 1.03125 -2.46875 1.03125zm26.089447 34.14061q-4.328125 0 -7.640625 -1.890625q-3.296875 -1.90625 -5.1875 -5.234375q-1.890625 -3.328125 -1.890625 -7.65625q0 -4.375 1.890625 -7.703125q1.890625 -3.328125 5.1875 -5.21875q3.3125 -1.90625 7.640625 -1.90625q4.265625 0 7.5625 1.90625q3.3125 1.890625 5.203125 5.21875q1.890625 3.328125 1.890625 7.703125q0 4.328125 -1.875 7.65625q-1.859375 3.328125 -5.171875 5.234375q-3.296875 1.890625 -7.609375 1.890625zm0 -4.8125q2.765625 0 4.890625 -1.265625q2.140625 -1.28125 3.34375 -3.515625q1.203125 -2.25 1.203125 -5.1875q0 -2.921875 -1.203125 -5.1875q-1.203125 -2.28125 -3.34375 -3.546875q-2.125 -1.28125 -4.890625 -1.28125q-2.78125 0 -4.921875 1.28125q-2.125 1.265625 -3.359375 3.546875q-1.21875 2.265625 -1.21875 5.1875q0 2.9375 1.21875 5.1875q1.234375 2.234375 3.359375 3.515625q2.140625 1.265625 4.921875 1.265625zm47.40268 4.640625q-1.171875 0 -1.953125 -0.765625q-0.765625 -0.78125 -0.765625 -1.953125l0 -13.109375q0 -3.046875 -1.125 -4.96875q-1.109375 -1.921875 -3.015625 -2.84375q-1.890625 -0.9375 -4.34375 -0.9375q-2.234375 0 -4.046875 0.90625q-1.8125 0.90625 -2.890625 2.4375q-1.0625 1.515625 -1.0625 3.484375l-3.359375 0q0 -3.359375 1.625 -6.0q1.625 -2.640625 4.453125 -4.1875q2.828125 -1.546875 6.359375 -1.546875q3.671875 0 6.578125 1.578125q2.90625 1.5625 4.578125 4.609375q1.6875 3.03125 1.6875 7.46875l0 13.109375q0 1.171875 -0.78125 1.953125q-0.765625 0.765625 -1.9375 0.765625zm-21.921875 0q-1.171875 0 -1.953125 -0.765625q-0.765625 -0.78125 -0.765625 -1.953125l0 -23.78125q0 -1.21875 0.765625 -1.96875q0.78125 -0.75 1.953125 -0.75q1.234375 0 1.96875 0.75q0.75 0.75 0.75 1.96875l0 23.78125q0 1.171875 -0.75 1.953125q-0.734375 0.765625 -1.96875 0.765625zm62.510468 0.171875q-4.328125 0 -7.640625 -1.890625q-3.296875 -1.90625 -5.1875 -5.234375q-1.890625 -3.328125 -1.890625 -7.65625q0 -4.375 1.890625 -7.703125q1.890625 -3.328125 5.1875 -5.21875q3.3125 -1.90625 7.640625 -1.90625q4.265625 0 7.5625 1.90625q3.3125 1.890625 5.203125 5.21875q1.890625 3.328125 1.890625 7.703125q0 4.328125 -1.875 7.65625q-1.859375 3.328125 -5.171875 5.234375q-3.296875 1.890625 -7.609375 1.890625zm0 -4.8125q2.765625 0 4.890625 -1.265625q2.140625 -1.28125 3.34375 -3.515625q1.203125 -2.25 1.203125 -5.1875q0 -2.921875 -1.203125 -5.1875q-1.203125 -2.28125 -3.34375 -3.546875q-2.125 -1.28125 -4.890625 -1.28125q-2.78125 0 -4.921875 1.28125q-2.125 1.265625 -3.359375 3.546875q-1.21875 2.265625 -1.21875 5.1875q0 2.9375 1.21875 5.1875q1.234375 2.234375 3.359375 3.515625q2.140625 1.265625 4.921875 1.265625zm25.918304 4.59375q-1.015625 0 -1.828125 -0.75q-0.796875 -0.75 -0.796875 -1.96875l0 -26.296875q0 -3.8281097 1.515625 -6.6562347q1.53125 -2.828125 4.25 -4.40625q2.71875 -1.578125 6.296875 -1.578125q1.171875 0 1.9375 0.703125q0.78125 0.6875 0.78125 1.75q0 1.015625 -0.78125 1.734375q-0.765625 0.71875 -1.9375 0.71875q-1.984375 0 -3.484375 0.90625q-1.484375 0.90625 -2.3125 2.515625q-0.828125 1.59375 -0.828125 3.7812347l0 26.828125q0 1.21875 -0.75 1.96875q-0.734375 0.75 -2.0625 0.75zm-4.90625 -23.515625q-1.125 0 -1.828125 -0.640625q-0.6875 -0.640625 -0.6875 -1.59375q0 -1.078125 0.6875 -1.71875q0.703125 -0.640625 1.828125 -0.640625l13.171875 0q1.109375 0 1.796875 0.640625q0.703125 0.640625 0.703125 1.71875q0 0.953125 -0.703125 1.59375q-0.6875 0.640625 -1.796875 0.640625l-13.171875 0zm40.259003 23.515625q-1.171875 0 -1.984375 -0.796875q-0.796875 -0.796875 -0.796875 -1.96875l0 -36.10936q0 -1.234375 0.796875 -2.0q0.8125 -0.78125 1.984375 -0.78125q1.59375 0 2.453125 1.5l16.6875 33.437485l-1.703125 0l16.265625 -33.437485q0.84375 -1.5 2.453125 -1.5q1.171875 0 1.96875 0.78125q0.796875 0.765625 0.796875 2.0l0 36.10936q0 1.171875 -0.828125 1.96875q-0.828125 0.796875 -1.9375 0.796875q-1.171875 0 -1.984375 -0.796875q-0.796875 -0.796875 -0.796875 -1.96875l0 -28.437485l1.078125 -0.265625l-13.984375 28.48436q-0.90625 1.390625 -2.390625 1.390625q-1.765625 0 -2.5625 -1.65625l-13.8125 -27.687485l1.0625 -0.265625l0 28.437485q0 1.171875 -0.796875 1.96875q-0.796875 0.796875 -1.96875 0.796875zm62.75876 0.21875q-4.421875 0 -7.859375 -1.890625q-3.4375 -1.90625 -5.390625 -5.234375q-1.9375 -3.328125 -1.9375 -7.65625q0 -4.375 1.828125 -7.703125q1.84375 -3.328125 5.09375 -5.21875q3.25 -1.90625 7.46875 -1.90625q4.15625 0 7.140625 1.84375q3.0 1.84375 4.5625 5.078125q1.578125 3.21875 1.578125 7.4375q0 1.0 -0.703125 1.671875q-0.6875 0.671875 -1.75 0.671875l-21.484375 0l0 -4.265625l21.328125 0l-2.1875 1.484375q-0.0625 -2.65625 -1.078125 -4.765625q-1.0 -2.109375 -2.875 -3.328125q-1.859375 -1.234375 -4.53125 -1.234375q-3.03125 0 -5.203125 1.34375q-2.15625 1.328125 -3.28125 3.65625q-1.109375 2.3125 -1.109375 5.234375q0 2.9375 1.328125 5.234375q1.328125 2.28125 3.671875 3.625q2.359375 1.328125 5.390625 1.328125q1.65625 0 3.390625 -0.609375q1.734375 -0.609375 2.796875 -1.421875q0.796875 -0.578125 1.734375 -0.609375q0.9375 -0.03125 1.625 0.5625q0.90625 0.796875 0.953125 1.765625q0.0625 0.953125 -0.84375 1.640625q-1.8125 1.453125 -4.515625 2.359375q-2.6875 0.90625 -5.140625 0.90625zm26.351105 -0.21875q-2.34375 0 -4.15625 -1.28125q-1.8125 -1.28125 -2.828125 -3.484375q-1.015625 -2.21875 -1.015625 -5.09375l0 -29.124985q0 -1.171875 0.734375 -1.921875q0.75 -0.75 1.9375 -0.75q1.171875 0 1.90625 0.75q0.75 0.75 0.75 1.921875l0 29.124985q0 1.96875 0.75 3.25q0.75 1.28125 1.921875 1.28125l1.328125 0q1.0625 0 1.734375 0.75q0.671875 0.734375 0.671875 1.90625q0 1.171875 -1.015625 1.921875q-1.015625 0.75 -2.609375 0.75l-0.109375 0zm19.617126 0.21875q-3.890625 0 -6.984375 -1.9375q-3.09375 -1.953125 -4.875 -5.28125q-1.78125 -3.34375 -1.78125 -7.5625q0 -4.203125 1.9375 -7.5625q1.953125 -3.359375 5.28125 -5.3125q3.328125 -1.953125 7.5 -1.953125q4.15625 0 7.453125 1.953125q3.3125 1.953125 5.25 5.3125q1.953125 3.359375 1.953125 7.5625l-2.078125 0q0 4.21875 -1.796875 7.5625q-1.78125 3.328125 -4.875 5.28125q-3.09375 1.9375 -6.984375 1.9375zm1.078125 -4.8125q2.71875 0 4.84375 -1.296875q2.140625 -1.3125 3.359375 -3.578125q1.234375 -2.265625 1.234375 -5.09375q0 -2.875 -1.234375 -5.140625q-1.21875 -2.265625 -3.359375 -3.5625q-2.125 -1.3125 -4.84375 -1.3125q-2.671875 0 -4.84375 1.3125q-2.15625 1.296875 -3.40625 3.5625q-1.25 2.265625 -1.25 5.140625q0 2.828125 1.25 5.09375q1.25 2.265625 3.40625 3.578125q2.171875 1.296875 4.84375 1.296875zm11.9375 4.640625q-1.171875 0 -1.953125 -0.765625q-0.765625 -0.78125 -0.765625 -1.953125l0 -8.15625l1.015625 -5.65625l4.421875 1.921875l0 11.890625q0 1.171875 -0.78125 1.953125q-0.765625 0.765625 -1.9375 0.765625zm35.46521 0q-1.171875 0 -1.953125 -0.765625q-0.765625 -0.78125 -0.765625 -1.953125l0 -13.109375q0 -3.046875 -1.125 -4.96875q-1.109375 -1.921875 -3.015625 -2.84375q-1.890625 -0.9375 -4.34375 -0.9375q-2.234375 0 -4.046875 0.90625q-1.8125 0.90625 -2.890625 2.4375q-1.0625 1.515625 -1.0625 3.484375l-3.359375 0q0 -3.359375 1.625 -6.0q1.625 -2.640625 4.453125 -4.1875q2.828125 -1.546875 6.359375 -1.546875q3.671875 0 6.578125 1.578125q2.90625 1.5625 4.578125 4.609375q1.6875 3.03125 1.6875 7.46875l0 13.109375q0 1.171875 -0.78125 1.953125q-0.765625 0.765625 -1.9375 0.765625zm-21.921875 0q-1.171875 0 -1.953125 -0.765625q-0.765625 -0.78125 -0.765625 -1.953125l0 -23.78125q0 -1.21875 0.765625 -1.96875q0.78125 -0.75 1.953125 -0.75q1.234375 0 1.96875 0.75q0.75 0.75 0.75 1.96875l0 23.78125q0 1.171875 -0.75 1.953125q-0.734375 0.765625 -1.96875 0.765625zm46.885315 0.171875q-4.328125 0 -7.640625 -1.890625q-3.296875 -1.90625 -5.1875 -5.234375q-1.890625 -3.328125 -1.890625 -7.65625q0 -4.375 1.890625 -7.703125q1.890625 -3.328125 5.1875 -5.21875q3.3125 -1.90625 7.640625 -1.90625q4.265625 0 7.5625 1.90625q3.3125 1.890625 5.203125 5.21875q1.890625 3.328125 1.890625 7.703125q0 4.328125 -1.875 7.65625q-1.859375 3.328125 -5.171875 5.234375q-3.296875 1.890625 -7.609375 1.890625zm0 -4.8125q2.765625 0 4.890625 -1.265625q2.140625 -1.28125 3.34375 -3.515625q1.203125 -2.25 1.203125 -5.1875q0 -2.921875 -1.203125 -5.1875q-1.203125 -2.28125 -3.34375 -3.546875q-2.125 -1.28125 -4.890625 -1.28125q-2.78125 0 -4.921875 1.28125q-2.125 1.265625 -3.359375 3.546875q-1.21875 2.265625 -1.21875 5.1875q0 2.9375 1.21875 5.1875q1.234375 2.234375 3.359375 3.515625q2.140625 1.265625 4.921875 1.265625zm61.05896 4.640625q-1.171875 0 -1.953125 -0.765625q-0.765625 -0.78125 -0.765625 -1.953125l0 -15.25q0 -3.359375 -1.65625 -4.984375q-1.65625 -1.625 -4.328125 -1.625q-2.765625 0 -4.5625 1.921875q-1.78125 1.921875 -1.78125 4.90625l-4.421875 0q0 -3.46875 1.484375 -6.109375q1.5 -2.640625 4.1875 -4.125q2.703125 -1.5 6.171875 -1.5q3.03125 0 5.375 1.34375q2.359375 1.328125 3.65625 3.921875q1.3125 2.578125 1.3125 6.25l0 15.25q0 1.171875 -0.75 1.953125q-0.75 0.765625 -1.96875 0.765625zm-35.578125 0q-1.171875 0 -1.953125 -0.765625q-0.765625 -0.78125 -0.765625 -1.953125l0 -23.71875q0 -1.234375 0.765625 -1.96875q0.78125 -0.75 1.953125 -0.75q1.234375 0 1.96875 0.75q0.75 0.734375 0.75 1.96875l0 23.71875q0 1.171875 -0.75 1.953125q-0.734375 0.765625 -1.96875 0.765625zm17.8125 0q-1.171875 0 -1.953125 -0.765625q-0.765625 -0.78125 -0.765625 -1.953125l0 -15.25q0 -3.359375 -1.65625 -4.984375q-1.640625 -1.625 -4.3125 -1.625q-2.78125 0 -4.59375 1.921875q-1.8125 1.921875 -1.8125 4.90625l-3.359375 0q0 -3.46875 1.390625 -6.109375q1.390625 -2.640625 3.84375 -4.125q2.453125 -1.5 5.59375 -1.5q3.046875 0 5.390625 1.34375q2.34375 1.328125 3.640625 3.921875q1.3125 2.578125 1.3125 6.25l0 15.25q0 1.171875 -0.75 1.953125q-0.734375 0.765625 -1.96875 0.765625zm41.64673 0.171875q-3.890625 0 -6.984375 -1.9375q-3.09375 -1.953125 -4.875 -5.28125q-1.78125 -3.34375 -1.78125 -7.5625q0 -4.203125 1.9375 -7.5625q1.953125 -3.359375 5.28125 -5.3125q3.328125 -1.953125 7.5 -1.953125q4.15625 0 7.453125 1.953125q3.3125 1.953125 5.25 5.3125q1.953125 3.359375 1.953125 7.5625l-2.078125 0q0 4.21875 -1.796875 7.5625q-1.78125 3.328125 -4.875 5.28125q-3.09375 1.9375 -6.984375 1.9375zm1.078125 -4.8125q2.71875 0 4.84375 -1.296875q2.140625 -1.3125 3.359375 -3.578125q1.234375 -2.265625 1.234375 -5.09375q0 -2.875 -1.234375 -5.140625q-1.21875 -2.265625 -3.359375 -3.5625q-2.125 -1.3125 -4.84375 -1.3125q-2.671875 0 -4.84375 1.3125q-2.15625 1.296875 -3.40625 3.5625q-1.25 2.265625 -1.25 5.140625q0 2.828125 1.25 5.09375q1.25 2.265625 3.40625 3.578125q2.171875 1.296875 4.84375 1.296875zm11.9375 4.640625q-1.171875 0 -1.953125 -0.765625q-0.765625 -0.78125 -0.765625 -1.953125l0 -8.15625l1.015625 -5.65625l4.421875 1.921875l0 11.890625q0 1.171875 -0.78125 1.953125q-0.765625 0.765625 -1.9375 0.765625zm41.121582 0.171875q-4.15625 0 -7.46875 -1.9375q-3.3125 -1.953125 -5.234375 -5.3125q-1.90625 -3.375 -1.96875 -7.578125l0 -24.312485q0 -1.234375 0.765625 -1.984375q0.78125 -0.75 1.953125 -0.75q1.234375 0 1.96875 0.75q0.75 0.75 0.75 1.984375l0 14.39061q1.875 -2.234375 4.515625 -3.546875q2.640625 -1.3125 5.78125 -1.3125q3.890625 0 6.984375 1.953125q3.09375 1.953125 4.875 5.28125q1.796875 3.328125 1.796875 7.546875q0 4.203125 -1.953125 7.578125q-1.9375 3.359375 -5.25 5.3125q-3.3125 1.9375 -7.515625 1.9375zm0 -4.8125q2.71875 0 4.84375 -1.296875q2.140625 -1.3125 3.390625 -3.59375q1.25 -2.296875 1.25 -5.125q0 -2.875 -1.25 -5.109375q-1.25 -2.25 -3.390625 -3.546875q-2.125 -1.3125 -4.84375 -1.3125q-2.671875 0 -4.828125 1.3125q-2.15625 1.296875 -3.390625 3.546875q-1.21875 2.234375 -1.21875 5.109375q0 2.828125 1.21875 5.125q1.234375 2.28125 3.390625 3.59375q2.15625 1.296875 4.828125 1.296875zm34.974 4.8125q-3.890625 0 -6.984375 -1.9375q-3.09375 -1.953125 -4.875 -5.28125q-1.78125 -3.34375 -1.78125 -7.5625q0 -4.203125 1.9375 -7.5625q1.953125 -3.359375 5.28125 -5.3125q3.328125 -1.953125 7.5 -1.953125q4.15625 0 7.453125 1.953125q3.3125 1.953125 5.25 5.3125q1.953125 3.359375 1.953125 7.5625l-2.078125 0q0 4.21875 -1.796875 7.5625q-1.78125 3.328125 -4.875 5.28125q-3.09375 1.9375 -6.984375 1.9375zm1.078125 -4.8125q2.71875 0 4.84375 -1.296875q2.140625 -1.3125 3.359375 -3.578125q1.234375 -2.265625 1.234375 -5.09375q0 -2.875 -1.234375 -5.140625q-1.21875 -2.265625 -3.359375 -3.5625q-2.125 -1.3125 -4.84375 -1.3125q-2.671875 0 -4.84375 1.3125q-2.15625 1.296875 -3.40625 3.5625q-1.25 2.265625 -1.25 5.140625q0 2.828125 1.25 5.09375q1.25 2.265625 3.40625 3.578125q2.171875 1.296875 4.84375 1.296875zm11.9375 4.640625q-1.171875 0 -1.953125 -0.765625q-0.765625 -0.78125 -0.765625 -1.953125l0 -8.15625l1.015625 -5.65625l4.421875 1.921875l0 11.890625q0 1.171875 -0.78125 1.953125q-0.765625 0.765625 -1.9375 0.765625zm21.43396 0.171875q-3.734375 0 -6.90625 -1.140625q-3.171875 -1.15625 -4.921875 -2.921875q-0.8125 -0.84375 -0.671875 -1.9375q0.140625 -1.09375 1.046875 -1.796875q1.0625 -0.84375 2.09375 -0.703125q1.046875 0.125 1.796875 0.921875q0.90625 1.015625 2.90625 1.890625q2.0 0.875 4.453125 0.875q3.09375 0 4.71875 -1.0q1.625 -1.015625 1.671875 -2.625q0.0625 -1.59375 -1.515625 -2.765625q-1.578125 -1.171875 -5.734375 -1.921875q-5.390625 -1.0625 -7.8125 -3.1875q-2.421875 -2.140625 -2.421875 -5.234375q0 -2.71875 1.59375 -4.5q1.609375 -1.796875 4.109375 -2.671875q2.5 -0.890625 5.21875 -0.890625q3.53125 0 6.25 1.125q2.71875 1.125 4.3125 3.09375q0.75 0.859375 0.6875 1.796875q-0.046875 0.921875 -0.890625 1.5625q-0.859375 0.59375 -2.03125 0.375q-1.171875 -0.21875 -1.96875 -0.953125q-1.34375 -1.28125 -2.890625 -1.765625q-1.546875 -0.484375 -3.5625 -0.484375q-2.359375 0 -3.984375 0.8125q-1.625 0.796875 -1.625 2.34375q0 0.953125 0.5 1.734375q0.515625 0.765625 2.0 1.375q1.5 0.609375 4.390625 1.203125q4.0 0.796875 6.3125 2.03125q2.3125 1.21875 3.328125 2.84375q1.015625 1.625 1.015625 3.765625q0 2.453125 -1.3125 4.421875q-1.296875 1.96875 -3.828125 3.15625q-2.53125 1.171875 -6.328125 1.171875zm32.050903 0q-4.421875 0 -7.859375 -1.890625q-3.4375 -1.90625 -5.390625 -5.234375q-1.9375 -3.328125 -1.9375 -7.65625q0 -4.375 1.828125 -7.703125q1.84375 -3.328125 5.09375 -5.21875q3.25 -1.90625 7.46875 -1.90625q4.15625 0 7.140625 1.84375q3.0 1.84375 4.5625 5.078125q1.578125 3.21875 1.578125 7.4375q0 1.0 -0.703125 1.671875q-0.6875 0.671875 -1.75 0.671875l-21.484375 0l0 -4.265625l21.328125 0l-2.1875 1.484375q-0.0625 -2.65625 -1.078125 -4.765625q-1.0 -2.109375 -2.875 -3.328125q-1.859375 -1.234375 -4.53125 -1.234375q-3.03125 0 -5.203125 1.34375q-2.15625 1.328125 -3.28125 3.65625q-1.109375 2.3125 -1.109375 5.234375q0 2.9375 1.328125 5.234375q1.328125 2.28125 3.671875 3.625q2.359375 1.328125 5.390625 1.328125q1.65625 0 3.390625 -0.609375q1.734375 -0.609375 2.796875 -1.421875q0.796875 -0.578125 1.734375 -0.609375q0.9375 -0.03125 1.625 0.5625q0.90625 0.796875 0.953125 1.765625q0.0625 0.953125 -0.84375 1.640625q-1.8125 1.453125 -4.515625 2.359375q-2.6875 0.90625 -5.140625 0.90625zm31.581299 0q-4.171875 0 -7.5 -1.9375q-3.328125 -1.953125 -5.28125 -5.3125q-1.9375 -3.375 -1.9375 -7.578125q0 -4.21875 1.78125 -7.546875q1.78125 -3.328125 4.875 -5.28125q3.09375 -1.953125 6.984375 -1.953125q3.15625 0 5.8125 1.3125q2.671875 1.3125 4.484375 3.546875l0 -14.39061q0 -1.234375 0.765625 -1.984375q0.78125 -0.75 1.953125 -0.75q1.234375 0 1.96875 0.75q0.75 0.75 0.75 1.984375l0 24.312485q0 4.203125 -1.953125 7.578125q-1.9375 3.359375 -5.25 5.3125q-3.296875 1.9375 -7.453125 1.9375zm0 -4.8125q2.71875 0 4.84375 -1.296875q2.140625 -1.3125 3.359375 -3.59375q1.234375 -2.296875 1.234375 -5.125q0 -2.875 -1.234375 -5.109375q-1.21875 -2.25 -3.359375 -3.546875q-2.125 -1.3125 -4.84375 -1.3125q-2.671875 0 -4.84375 1.3125q-2.15625 1.296875 -3.40625 3.546875q-1.25 2.234375 -1.25 5.109375q0 2.828125 1.25 5.125q1.25 2.28125 3.40625 3.59375q2.171875 1.296875 4.84375 1.296875zm53.114746 4.8125q-4.328125 0 -7.640625 -1.890625q-3.296875 -1.90625 -5.1875 -5.234375q-1.890625 -3.328125 -1.890625 -7.65625q0 -4.375 1.890625 -7.703125q1.890625 -3.328125 5.1875 -5.21875q3.3125 -1.90625 7.640625 -1.90625q4.265625 0 7.5625 1.90625q3.3125 1.890625 5.203125 5.21875q1.890625 3.328125 1.890625 7.703125q0 4.328125 -1.875 7.65625q-1.859375 3.328125 -5.171875 5.234375q-3.296875 1.890625 -7.609375 1.890625zm0 -4.8125q2.765625 0 4.890625 -1.265625q2.140625 -1.28125 3.34375 -3.515625q1.203125 -2.25 1.203125 -5.1875q0 -2.921875 -1.203125 -5.1875q-1.203125 -2.28125 -3.34375 -3.546875q-2.125 -1.28125 -4.890625 -1.28125q-2.78125 0 -4.921875 1.28125q-2.125 1.265625 -3.359375 3.546875q-1.21875 2.265625 -1.21875 5.1875q0 2.9375 1.21875 5.1875q1.234375 2.234375 3.359375 3.515625q2.140625 1.265625 4.921875 1.265625zm47.40271 4.640625q-1.171875 0 -1.953125 -0.765625q-0.765625 -0.78125 -0.765625 -1.953125l0 -13.109375q0 -3.046875 -1.125 -4.96875q-1.109375 -1.921875 -3.015625 -2.84375q-1.890625 -0.9375 -4.34375 -0.9375q-2.234375 0 -4.046875 0.90625q-1.8125 0.90625 -2.890625 2.4375q-1.0625 1.515625 -1.0625 3.484375l-3.359375 0q0 -3.359375 1.625 -6.0q1.625 -2.640625 4.453125 -4.1875q2.828125 -1.546875 6.359375 -1.546875q3.671875 0 6.578125 1.578125q2.90625 1.5625 4.578125 4.609375q1.6875 3.03125 1.6875 7.46875l0 13.109375q0 1.171875 -0.78125 1.953125q-0.765625 0.765625 -1.9375 0.765625zm-21.921875 0q-1.171875 0 -1.953125 -0.765625q-0.765625 -0.78125 -0.765625 -1.953125l0 -23.78125q0 -1.21875 0.765625 -1.96875q0.78125 -0.75 1.953125 -0.75q1.234375 0 1.96875 0.75q0.75 0.75 0.75 1.96875l0 23.78125q0 1.171875 -0.75 1.953125q-0.734375 0.765625 -1.96875 0.765625zm52.588623 -0.046875q-1.171875 0 -1.984375 -0.796875q-0.796875 -0.796875 -0.796875 -1.96875l0 -36.10936q0 -1.234375 0.796875 -2.0q0.8125 -0.78125 1.984375 -0.78125l10.656189 0q4.0 0 7.09375 1.765625q3.09375 1.765625 4.828125 4.890625q1.734375 3.109375 1.734375 7.1562347q0 3.90625 -1.734375 6.953125q-1.734375 3.03125 -4.828125 4.734375q-3.09375 1.703125 -7.09375 1.703125l-7.890564 0l0 11.6875q0 1.171875 -0.78125 1.96875q-0.765625 0.796875 -1.984375 0.796875zm2.765625 -19.578125l7.890564 0q2.453125 0 4.3125 -1.0625q1.875 -1.0625 2.9375 -2.921875q1.078125 -1.875 1.078125 -4.28125q0 -2.546875 -1.078125 -4.4999847q-1.0625 -1.953125 -2.9375 -3.0625q-1.859375 -1.125 -4.3125 -1.125l-7.890564 0l0 16.95311zm29.754578 1.34375q0 -3.203125 1.578125 -5.734375q1.578125 -2.53125 4.234375 -4.015625q2.671875 -1.5 5.875 -1.5q3.203125 0 4.765625 1.046875q1.578125 1.03125 1.203125 2.46875q-0.15625 0.75 -0.609375 1.15625q-0.453125 0.390625 -1.046875 0.5q-0.578125 0.109375 -1.28125 -0.0625q-3.40625 -0.6875 -6.125 -0.09375q-2.71875 0.578125 -4.296875 2.1875q-1.578125 1.59375 -1.578125 4.046875l-2.71875 0zm0.0625 18.234375q-1.28125 0 -1.984375 -0.65625q-0.6875 -0.671875 -0.6875 -2.015625l0 -23.828125q0 -1.28125 0.6875 -1.96875q0.703125 -0.703125 1.984375 -0.703125q1.328125 0 1.984375 0.671875q0.671875 0.65625 0.671875 2.0l0 23.828125q0 1.28125 -0.671875 1.984375q-0.65625 0.6875 -1.984375 0.6875zm34.34668 0.21875q-4.328125 0 -7.640625 -1.890625q-3.296875 -1.90625 -5.1875 -5.234375q-1.890625 -3.328125 -1.890625 -7.65625q0 -4.375 1.890625 -7.703125q1.890625 -3.328125 5.1875 -5.21875q3.3125 -1.90625 7.640625 -1.90625q4.265625 0 7.5625 1.90625q3.3125 1.890625 5.203125 5.21875q1.890625 3.328125 1.890625 7.703125q0 4.328125 -1.875 7.65625q-1.859375 3.328125 -5.171875 5.234375q-3.296875 1.890625 -7.609375 1.890625zm0 -4.8125q2.765625 0 4.890625 -1.265625q2.140625 -1.28125 3.34375 -3.515625q1.203125 -2.25 1.203125 -5.1875q0 -2.921875 -1.203125 -5.1875q-1.203125 -2.28125 -3.34375 -3.546875q-2.125 -1.28125 -4.890625 -1.28125q-2.78125 0 -4.921875 1.28125q-2.125 1.265625 -3.359375 3.546875q-1.21875 2.265625 -1.21875 5.1875q0 2.9375 1.21875 5.1875q1.234375 2.234375 3.359375 3.515625q2.140625 1.265625 4.921875 1.265625zm33.371338 4.59375q-2.65625 0 -4.796875 -1.359375q-2.125 -1.359375 -3.359375 -3.703125q-1.21875 -2.34375 -1.21875 -5.28125l0 -25.437485q0 -1.171875 0.734375 -1.921875q0.75 -0.75 1.921875 -0.75q1.171875 0 1.921875 0.75q0.75 0.75 0.75 1.921875l0 25.437485q0 2.125 1.171875 3.578125q1.171875 1.4375 2.875 1.4375l1.8125 0q0.96875 0 1.625 0.75q0.671875 0.734375 0.671875 1.90625q0 1.171875 -0.875 1.921875q-0.875 0.75 -2.265625 0.75l-0.96875 0zm-11.828125 -23.515625q-1.125 0 -1.828125 -0.640625q-0.6875 -0.640625 -0.6875 -1.59375q0 -1.078125 0.6875 -1.71875q0.703125 -0.640625 1.828125 -0.640625l12.3125 0q1.125 0 1.8125 0.640625q0.6875 0.640625 0.6875 1.71875q0 0.953125 -0.6875 1.59375q-0.6875 0.640625 -1.8125 0.640625l-12.3125 0zm36.306396 23.734375q-4.421875 0 -7.859375 -1.890625q-3.4375 -1.90625 -5.390625 -5.234375q-1.9375 -3.328125 -1.9375 -7.65625q0 -4.375 1.828125 -7.703125q1.84375 -3.328125 5.09375 -5.21875q3.25 -1.90625 7.46875 -1.90625q4.15625 0 7.140625 1.84375q3.0 1.84375 4.5625 5.078125q1.578125 3.21875 1.578125 7.4375q0 1.0 -0.703125 1.671875q-0.6875 0.671875 -1.75 0.671875l-21.484375 0l0 -4.265625l21.328125 0l-2.1875 1.484375q-0.0625 -2.65625 -1.078125 -4.765625q-1.0 -2.109375 -2.875 -3.328125q-1.859375 -1.234375 -4.53125 -1.234375q-3.03125 0 -5.203125 1.34375q-2.15625 1.328125 -3.28125 3.65625q-1.109375 2.3125 -1.109375 5.234375q0 2.9375 1.328125 5.234375q1.328125 2.28125 3.671875 3.625q2.359375 1.328125 5.390625 1.328125q1.65625 0 3.390625 -0.609375q1.734375 -0.609375 2.796875 -1.421875q0.796875 -0.578125 1.734375 -0.609375q0.9375 -0.03125 1.625 0.5625q0.90625 0.796875 0.953125 1.765625q0.0625 0.953125 -0.84375 1.640625q-1.8125 1.453125 -4.515625 2.359375q-2.6875 0.90625 -5.140625 0.90625zm22.663574 -0.21875q-1.171875 0 -1.953125 -0.765625q-0.765625 -0.78125 -0.765625 -1.953125l0 -23.734375q0 -1.21875 0.765625 -1.96875q0.78125 -0.75 1.953125 -0.75q1.234375 0 1.96875 0.75q0.75 0.75 0.75 1.96875l0 23.734375q0 1.171875 -0.75 1.953125q-0.734375 0.765625 -1.96875 0.765625zm0 -33.92186q-1.4375 0 -2.484375 -1.03125q-1.03125 -1.046875 -1.03125 -2.484375q0 -1.4375 1.03125 -2.46875q1.046875 -1.046875 2.484375 -1.046875q1.4375 0 2.46875 1.046875q1.046875 1.03125 1.046875 2.46875q0 1.4375 -1.046875 2.484375q-1.03125 1.03125 -2.46875 1.03125zm37.49585 33.968735q-1.171875 0 -1.953125 -0.765625q-0.765625 -0.78125 -0.765625 -1.953125l0 -13.109375q0 -3.046875 -1.125 -4.96875q-1.109375 -1.921875 -3.015625 -2.84375q-1.890625 -0.9375 -4.34375 -0.9375q-2.234375 0 -4.046875 0.90625q-1.8125 0.90625 -2.890625 2.4375q-1.0625 1.515625 -1.0625 3.484375l-3.359375 0q0 -3.359375 1.625 -6.0q1.625 -2.640625 4.453125 -4.1875q2.828125 -1.546875 6.359375 -1.546875q3.671875 0 6.578125 1.578125q2.90625 1.5625 4.578125 4.609375q1.6875 3.03125 1.6875 7.46875l0 13.109375q0 1.171875 -0.78125 1.953125q-0.765625 0.765625 -1.9375 0.765625zm-21.921875 0q-1.171875 0 -1.953125 -0.765625q-0.765625 -0.78125 -0.765625 -1.953125l0 -23.78125q0 -1.21875 0.765625 -1.96875q0.78125 -0.75 1.953125 -0.75q1.234375 0 1.96875 0.75q0.75 0.75 0.75 1.96875l0 23.78125q0 1.171875 -0.75 1.953125q-0.734375 0.765625 -1.96875 0.765625z" fill-rule="nonzero"/><path fill="#002060" d="m398.80093 350.4q-1.171875 0 -1.984375 -0.796875q-0.796875 -0.796875 -0.796875 -1.96875l0 -36.109375q0 -1.234375 0.796875 -2.0q0.8125 -0.78125 1.984375 -0.78125l10.65625 0q4.0 0 7.09375 1.765625q3.09375 1.765625 4.828125 4.890625q1.734375 3.109375 1.734375 7.15625q0 3.90625 -1.734375 6.953125q-1.734375 3.03125 -4.828125 4.734375q-3.09375 1.703125 -7.09375 1.703125l-7.890625 0l0 11.6875q0 1.171875 -0.78125 1.96875q-0.765625 0.796875 -1.984375 0.796875zm2.765625 -19.578125l7.890625 0q2.453125 0 4.3125 -1.0625q1.875 -1.0625 2.9375 -2.921875q1.078125 -1.875 1.078125 -4.28125q0 -2.546875 -1.078125 -4.5q-1.0625 -1.953125 -2.9375 -3.0625q-1.859375 -1.125 -4.3125 -1.125l-7.890625 0l0 16.953125zm29.754608 1.34375q0 -3.203125 1.578125 -5.734375q1.578125 -2.53125 4.234375 -4.015625q2.671875 -1.5 5.875 -1.5q3.203125 0 4.765625 1.046875q1.578125 1.03125 1.203125 2.46875q-0.15625 0.75 -0.609375 1.15625q-0.453125 0.390625 -1.046875 0.5q-0.578125 0.109375 -1.28125 -0.0625q-3.40625 -0.6875 -6.125 -0.09375q-2.71875 0.578125 -4.296875 2.1875q-1.578125 1.59375 -1.578125 4.046875l-2.71875 0zm0.0625 18.234375q-1.28125 0 -1.984375 -0.65625q-0.6875 -0.671875 -0.6875 -2.015625l0 -23.828125q0 -1.28125 0.6875 -1.96875q0.703125 -0.703125 1.984375 -0.703125q1.328125 0 1.984375 0.671875q0.671875 0.65625 0.671875 2.0l0 23.828125q0 1.28125 -0.671875 1.984375q-0.65625 0.6875 -1.984375 0.6875zm26.495544 0q-1.171875 0 -1.953125 -0.765625q-0.765625 -0.78125 -0.765625 -1.953125l0 -23.734375q0 -1.21875 0.765625 -1.96875q0.78125 -0.75 1.953125 -0.75q1.234375 0 1.96875 0.75q0.75 0.75 0.75 1.96875l0 23.734375q0 1.171875 -0.75 1.953125q-0.734375 0.765625 -1.96875 0.765625zm0 -33.921875q-1.4375 0 -2.484375 -1.03125q-1.03125 -1.046875 -1.03125 -2.484375q0 -1.4375 1.03125 -2.46875q1.046875 -1.046875 2.484375 -1.046875q1.4375 0 2.46875 1.046875q1.046875 1.03125 1.046875 2.46875q0 1.4375 -1.046875 2.484375q-1.03125 1.03125 -2.46875 1.03125zm51.151978 33.96875q-1.171875 0 -1.953125 -0.765625q-0.765625 -0.78125 -0.765625 -1.953125l0 -15.25q0 -3.359375 -1.65625 -4.984375q-1.65625 -1.625 -4.328125 -1.625q-2.765625 0 -4.5625 1.921875q-1.78125 1.921875 -1.78125 4.90625l-4.421875 0q0 -3.46875 1.484375 -6.109375q1.5 -2.640625 4.1875 -4.125q2.703125 -1.5 6.171875 -1.5q3.03125 0 5.375 1.34375q2.359375 1.328125 3.65625 3.921875q1.3125 2.578125 1.3125 6.25l0 15.25q0 1.171875 -0.75 1.953125q-0.75 0.765625 -1.96875 0.765625zm-35.578125 0q-1.171875 0 -1.953125 -0.765625q-0.765625 -0.78125 -0.765625 -1.953125l0 -23.71875q0 -1.234375 0.765625 -1.96875q0.78125 -0.75 1.953125 -0.75q1.234375 0 1.96875 0.75q0.75 0.734375 0.75 1.96875l0 23.71875q0 1.171875 -0.75 1.953125q-0.734375 0.765625 -1.96875 0.765625zm17.8125 0q-1.171875 0 -1.953125 -0.765625q-0.765625 -0.78125 -0.765625 -1.953125l0 -15.25q0 -3.359375 -1.65625 -4.984375q-1.640625 -1.625 -4.3125 -1.625q-2.78125 0 -4.59375 1.921875q-1.8125 1.921875 -1.8125 4.90625l-3.359375 0q0 -3.46875 1.390625 -6.109375q1.390625 -2.640625 3.84375 -4.125q2.453125 -1.5 5.59375 -1.5q3.046875 0 5.390625 1.34375q2.34375 1.328125 3.640625 3.921875q1.3125 2.578125 1.3125 6.25l0 15.25q0 1.171875 -0.75 1.953125q-0.734375 0.765625 -1.96875 0.765625zm41.646667 0.171875q-3.890625 0 -6.984375 -1.9375q-3.09375 -1.953125 -4.875 -5.28125q-1.78125 -3.34375 -1.78125 -7.5625q0 -4.203125 1.9375 -7.5625q1.953125 -3.359375 5.28125 -5.3125q3.328125 -1.953125 7.5 -1.953125q4.15625 0 7.453125 1.953125q3.3125 1.953125 5.25 5.3125q1.953125 3.359375 1.953125 7.5625l-2.078125 0q0 4.21875 -1.796875 7.5625q-1.78125 3.328125 -4.875 5.28125q-3.09375 1.9375 -6.984375 1.9375zm1.078125 -4.8125q2.71875 0 4.84375 -1.296875q2.140625 -1.3125 3.359375 -3.578125q1.234375 -2.265625 1.234375 -5.09375q0 -2.875 -1.234375 -5.140625q-1.21875 -2.265625 -3.359375 -3.5625q-2.125 -1.3125 -4.84375 -1.3125q-2.671875 0 -4.84375 1.3125q-2.15625 1.296875 -3.40625 3.5625q-1.25 2.265625 -1.25 5.140625q0 2.828125 1.25 5.09375q1.25 2.265625 3.40625 3.578125q2.171875 1.296875 4.84375 1.296875zm11.9375 4.640625q-1.171875 0 -1.953125 -0.765625q-0.765625 -0.78125 -0.765625 -1.953125l0 -8.15625l1.015625 -5.65625l4.421875 1.921875l0 11.890625q0 1.171875 -0.78125 1.953125q-0.765625 0.765625 -1.9375 0.765625zm13.43396 -18.28125q0 -3.203125 1.578125 -5.734375q1.578125 -2.53125 4.234375 -4.015625q2.671875 -1.5 5.875 -1.5q3.203125 0 4.765625 1.046875q1.578125 1.03125 1.203125 2.46875q-0.15625 0.75 -0.609375 1.15625q-0.453125 0.390625 -1.046875 0.5q-0.578125 0.109375 -1.28125 -0.0625q-3.40625 -0.6875 -6.125 -0.09375q-2.71875 0.578125 -4.296875 2.1875q-1.578125 1.59375 -1.578125 4.046875l-2.71875 0zm0.0625 18.234375q-1.28125 0 -1.984375 -0.65625q-0.6875 -0.671875 -0.6875 -2.015625l0 -23.828125q0 -1.28125 0.6875 -1.96875q0.703125 -0.703125 1.984375 -0.703125q1.328125 0 1.984375 0.671875q0.671875 0.65625 0.671875 2.0l0 23.828125q0 1.28125 -0.671875 1.984375q-0.65625 0.6875 -1.984375 0.6875zm28.47992 12.796875q-0.53125 0 -1.28125 -0.3125q-2.34375 -1.078125 -1.28125 -3.359375l16.265625 -36.75q1.0625 -2.234375 3.359375 -1.28125q2.390625 1.015625 1.328125 3.359375l-16.3125 36.6875q-0.640625 1.65625 -2.078125 1.65625zm6.28125 -13.96875q-1.0 0.421875 -1.890625 0.078125q-0.875 -0.34375 -1.40625 -1.359375l-12.21875 -23.203125q-0.53125 -1.0 -0.140625 -1.9375q0.40625 -0.9375 1.421875 -1.359375q1.015625 -0.4375 1.921875 -0.078125q0.90625 0.34375 1.390625 1.359375l11.671875 23.1875q0.53125 1.015625 0.390625 1.953125q-0.125 0.9375 -1.140625 1.359375zm46.618896 1.703125q-3.421875 0 -6.515625 -1.0625q-3.09375 -1.0625 -5.390625 -2.984375q-2.28125 -1.921875 -3.34375 -4.4375q-0.546875 -1.109375 0.015625 -2.0625q0.5625 -0.96875 1.890625 -1.234375q0.96875 -0.21875 1.890625 0.296875q0.9375 0.5 1.421875 1.515625q0.640625 1.328125 2.109375 2.453125q1.46875 1.125 3.546875 1.8125q2.078125 0.6875 4.375 0.6875q2.5625 0 4.71875 -0.796875q2.15625 -0.796875 3.484375 -2.3125q1.34375 -1.53125 1.34375 -3.765625q0 -2.828125 -2.21875 -5.0625q-2.21875 -2.25 -7.28125 -2.78125q-6.609375 -0.640625 -10.40625 -3.890625q-3.78125 -3.25 -3.78125 -8.046875q0 -3.515625 1.96875 -5.96875q1.984375 -2.453125 5.359375 -3.734375q3.390625 -1.28125 7.5625 -1.28125q3.25 0 5.671875 0.90625q2.421875 0.90625 4.234375 2.515625q1.8125 1.59375 3.15625 3.765625q0.734375 1.1875 0.59375 2.234375q-0.125 1.03125 -1.03125 1.609375q-1.0 0.640625 -2.1875 0.265625q-1.171875 -0.375 -1.75 -1.375q-0.859375 -1.546875 -2.09375 -2.609375q-1.21875 -1.078125 -2.875 -1.6875q-1.640625 -0.609375 -3.890625 -0.609375q-3.9375 -0.0625 -6.609375 1.46875q-2.671875 1.515625 -2.671875 4.65625q0 1.59375 0.828125 3.0625q0.828125 1.46875 3.03125 2.546875q2.21875 1.0625 6.390625 1.484375q6.34375 0.640625 9.890625 3.875q3.546875 3.21875 3.546875 8.5q0 3.03125 -1.265625 5.28125q-1.25 2.234375 -3.359375 3.765625q-2.09375 1.515625 -4.796875 2.265625q-2.6875 0.734375 -5.5625 0.734375zm33.53351 -0.53125q-2.65625 0 -4.796875 -1.359375q-2.125 -1.359375 -3.359375 -3.703125q-1.21875 -2.34375 -1.21875 -5.28125l0 -25.4375q0 -1.171875 0.734375 -1.921875q0.75 -0.75 1.921875 -0.75q1.171875 0 1.921875 0.75q0.75 0.75 0.75 1.921875l0 25.4375q0 2.125 1.171875 3.578125q1.171875 1.4375 2.875 1.4375l1.8125 0q0.96875 0 1.625 0.75q0.671875 0.734375 0.671875 1.90625q0 1.171875 -0.875 1.921875q-0.875 0.75 -2.265625 0.75l-0.96875 0zm-11.828125 -23.515625q-1.125 0 -1.828125 -0.640625q-0.6875 -0.640625 -0.6875 -1.59375q0 -1.078125 0.6875 -1.71875q0.703125 -0.640625 1.828125 -0.640625l12.3125 0q1.125 0 1.8125 0.640625q0.6875 0.640625 0.6875 1.71875q0 0.953125 -0.6875 1.59375q-0.6875 0.640625 -1.8125 0.640625l-12.3125 0zm25.212646 5.28125q0 -3.203125 1.578125 -5.734375q1.578125 -2.53125 4.234375 -4.015625q2.671875 -1.5 5.875 -1.5q3.203125 0 4.765625 1.046875q1.578125 1.03125 1.203125 2.46875q-0.15625 0.75 -0.609375 1.15625q-0.453125 0.390625 -1.046875 0.5q-0.578125 0.109375 -1.28125 -0.0625q-3.40625 -0.6875 -6.125 -0.09375q-2.71875 0.578125 -4.296875 2.1875q-1.578125 1.59375 -1.578125 4.046875l-2.71875 0zm0.0625 18.234375q-1.28125 0 -1.984375 -0.65625q-0.6875 -0.671875 -0.6875 -2.015625l0 -23.828125q0 -1.28125 0.6875 -1.96875q0.703125 -0.703125 1.984375 -0.703125q1.328125 0 1.984375 0.671875q0.671875 0.65625 0.671875 2.0l0 23.828125q0 1.28125 -0.671875 1.984375q-0.65625 0.6875 -1.984375 0.6875zm35.51111 0.265625q-3.671875 0 -6.578125 -1.5625q-2.90625 -1.578125 -4.59375 -4.609375q-1.671875 -3.046875 -1.671875 -7.484375l0 -13.109375q0 -1.171875 0.765625 -1.9375q0.78125 -0.78125 1.953125 -0.78125q1.171875 0 1.9375 0.78125q0.78125 0.765625 0.78125 1.9375l0 13.109375q0 2.984375 1.109375 4.9375q1.125 1.953125 3.046875 2.890625q1.921875 0.921875 4.3125 0.921875q2.296875 0 4.078125 -0.90625q1.796875 -0.90625 2.859375 -2.453125q1.0625 -1.546875 1.0625 -3.46875l3.359375 0q0 3.3125 -1.625 5.984375q-1.625 2.65625 -4.421875 4.203125q-2.796875 1.546875 -6.375 1.546875zm11.78125 -0.265625q-1.171875 0 -1.953125 -0.765625q-0.765625 -0.78125 -0.765625 -1.953125l0 -23.78125q0 -1.234375 0.765625 -1.96875q0.78125 -0.75 1.953125 -0.75q1.234375 0 1.96875 0.75q0.75 0.734375 0.75 1.96875l0 23.78125q0 1.171875 -0.75 1.953125q-0.734375 0.765625 -1.96875 0.765625zm25.557251 0.21875q-4.265625 0 -7.609375 -1.9375q-3.328125 -1.953125 -5.21875 -5.28125q-1.890625 -3.34375 -1.890625 -7.5625q0 -4.3125 1.859375 -7.671875q1.875 -3.359375 5.125 -5.25q3.25 -1.90625 7.46875 -1.90625q3.140625 0 5.75 1.203125q2.609375 1.203125 4.6875 3.609375q0.75 0.84375 0.53125 1.75q-0.203125 0.90625 -1.15625 1.609375q-0.75 0.53125 -1.65625 0.34375q-0.90625 -0.1875 -1.65625 -0.9375q-2.609375 -2.765625 -6.5 -2.765625q-2.734375 0 -4.8125 1.25q-2.078125 1.25 -3.25 3.5q-1.171875 2.234375 -1.171875 5.265625q0 2.890625 1.203125 5.125q1.203125 2.234375 3.328125 3.546875q2.140625 1.296875 4.96875 1.296875q1.859375 0 3.265625 -0.453125q1.421875 -0.453125 2.59375 -1.40625q0.859375 -0.6875 1.765625 -0.765625q0.90625 -0.09375 1.59375 0.5q0.90625 0.75 1.015625 1.6875q0.109375 0.921875 -0.640625 1.671875q-3.84375 3.578125 -9.59375 3.578125zm29.42517 -0.21875q-2.65625 0 -4.796875 -1.359375q-2.125 -1.359375 -3.359375 -3.703125q-1.21875 -2.34375 -1.21875 -5.28125l0 -25.4375q0 -1.171875 0.734375 -1.921875q0.75 -0.75 1.921875 -0.75q1.171875 0 1.921875 0.75q0.75 0.75 0.75 1.921875l0 25.4375q0 2.125 1.171875 3.578125q1.171875 1.4375 2.875 1.4375l1.8125 0q0.96875 0 1.625 0.75q0.671875 0.734375 0.671875 1.90625q0 1.171875 -0.875 1.921875q-0.875 0.75 -2.265625 0.75l-0.96875 0zm-11.828125 -23.515625q-1.125 0 -1.828125 -0.640625q-0.6875 -0.640625 -0.6875 -1.59375q0 -1.078125 0.6875 -1.71875q0.703125 -0.640625 1.828125 -0.640625l12.3125 0q1.125 0 1.8125 0.640625q0.6875 0.640625 0.6875 1.71875q0 0.953125 -0.6875 1.59375q-0.6875 0.640625 -1.8125 0.640625l-12.3125 0zm34.868896 23.78125q-3.671875 0 -6.578125 -1.5625q-2.90625 -1.578125 -4.59375 -4.609375q-1.671875 -3.046875 -1.671875 -7.484375l0 -13.109375q0 -1.171875 0.765625 -1.9375q0.78125 -0.78125 1.953125 -0.78125q1.171875 0 1.9375 0.78125q0.78125 0.765625 0.78125 1.9375l0 13.109375q0 2.984375 1.109375 4.9375q1.125 1.953125 3.046875 2.890625q1.921875 0.921875 4.3125 0.921875q2.296875 0 4.078125 -0.90625q1.796875 -0.90625 2.859375 -2.453125q1.0625 -1.546875 1.0625 -3.46875l3.359375 0q0 3.3125 -1.625 5.984375q-1.625 2.65625 -4.421875 4.203125q-2.796875 1.546875 -6.375 1.546875zm11.78125 -0.265625q-1.171875 0 -1.953125 -0.765625q-0.765625 -0.78125 -0.765625 -1.953125l0 -23.78125q0 -1.234375 0.765625 -1.96875q0.78125 -0.75 1.953125 -0.75q1.234375 0 1.96875 0.75q0.75 0.734375 0.75 1.96875l0 23.78125q0 1.171875 -0.75 1.953125q-0.734375 0.765625 -1.96875 0.765625zm14.93219 -18.234375q0 -3.203125 1.578125 -5.734375q1.578125 -2.53125 4.234375 -4.015625q2.671875 -1.5 5.875 -1.5q3.203125 0 4.765625 1.046875q1.578125 1.03125 1.203125 2.46875q-0.15625 0.75 -0.609375 1.15625q-0.453125 0.390625 -1.046875 0.5q-0.578125 0.109375 -1.28125 -0.0625q-3.40625 -0.6875 -6.125 -0.09375q-2.71875 0.578125 -4.296875 2.1875q-1.578125 1.59375 -1.578125 4.046875l-2.71875 0zm0.0625 18.234375q-1.28125 0 -1.984375 -0.65625q-0.6875 -0.671875 -0.6875 -2.015625l0 -23.828125q0 -1.28125 0.6875 -1.96875q0.703125 -0.703125 1.984375 -0.703125q1.328125 0 1.984375 0.671875q0.671875 0.65625 0.671875 2.0l0 23.828125q0 1.28125 -0.671875 1.984375q-0.65625 0.6875 -1.984375 0.6875zm34.81537 0.21875q-4.421875 0 -7.859375 -1.890625q-3.4375 -1.90625 -5.390625 -5.234375q-1.9375 -3.328125 -1.9375 -7.65625q0 -4.375 1.828125 -7.703125q1.84375 -3.328125 5.09375 -5.21875q3.25 -1.90625 7.46875 -1.90625q4.15625 0 7.140625 1.84375q3.0 1.84375 4.5625 5.078125q1.578125 3.21875 1.578125 7.4375q0 1.0 -0.703125 1.671875q-0.6875 0.671875 -1.75 0.671875l-21.484375 0l0 -4.265625l21.328125 0l-2.1875 1.484375q-0.0625 -2.65625 -1.078125 -4.765625q-1.0 -2.109375 -2.875 -3.328125q-1.859375 -1.234375 -4.53125 -1.234375q-3.03125 0 -5.203125 1.34375q-2.15625 1.328125 -3.28125 3.65625q-1.109375 2.3125 -1.109375 5.234375q0 2.9375 1.328125 5.234375q1.328125 2.28125 3.671875 3.625q2.359375 1.328125 5.390625 1.328125q1.65625 0 3.390625 -0.609375q1.734375 -0.609375 2.796875 -1.421875q0.796875 -0.578125 1.734375 -0.609375q0.9375 -0.03125 1.625 0.5625q0.90625 0.796875 0.953125 1.765625q0.0625 0.953125 -0.84375 1.640625q-1.8125 1.453125 -4.515625 2.359375q-2.6875 0.90625 -5.140625 0.90625z" fill-rule="nonzero"/><path fill="#002060" d="m373.16827 473.28q-1.0625 0 -1.78125 -0.71875q-0.71875 -0.71875 -0.71875 -1.78125l0 -32.484375q0 -1.109375 0.71875 -1.796875q0.71875 -0.703125 1.78125 -0.703125q1.4375 0 2.203125 1.34375l15.03125 30.09375l-1.546875 0l14.640625 -30.09375q0.78125 -1.34375 2.21875 -1.34375q1.046875 0 1.765625 0.703125q0.734375 0.6875 0.734375 1.796875l0 32.484375q0 1.0625 -0.75 1.78125q-0.75 0.71875 -1.75 0.71875q-1.0625 0 -1.78125 -0.71875q-0.71875 -0.71875 -0.71875 -1.78125l0 -25.578125l0.953125 -0.234375l-12.5625 25.625q-0.828125 1.25 -2.171875 1.25q-1.578125 0 -2.296875 -1.484375l-12.4375 -24.921875l0.96875 -0.234375l0 25.578125q0 1.0625 -0.71875 1.78125q-0.71875 0.71875 -1.78125 0.71875zm56.057983 0.1875q-3.875 0 -6.859375 -1.703125q-2.96875 -1.703125 -4.6875 -4.703125q-1.703125 -3.0 -1.703125 -6.890625q0 -3.9375 1.703125 -6.9375q1.71875 -3.0 4.6875 -4.703125q2.984375 -1.703125 6.859375 -1.703125q3.84375 0 6.8125 1.703125q2.984375 1.703125 4.6875 4.703125q1.703125 3.0 1.703125 6.9375q0 3.890625 -1.6875 6.890625q-1.671875 3.0 -4.65625 4.703125q-2.96875 1.703125 -6.859375 1.703125zm0 -4.3125q2.5 0 4.421875 -1.15625q1.921875 -1.15625 3.0 -3.171875q1.078125 -2.015625 1.078125 -4.65625q0 -2.640625 -1.078125 -4.671875q-1.078125 -2.046875 -3.0 -3.1875q-1.921875 -1.15625 -4.421875 -1.15625q-2.484375 0 -4.40625 1.15625q-1.921875 1.140625 -3.03125 3.1875q-1.09375 2.03125 -1.09375 4.671875q0 2.640625 1.09375 4.65625q1.109375 2.015625 3.03125 3.171875q1.921875 1.15625 4.40625 1.15625zm32.400055 4.3125q-3.734375 0 -6.734375 -1.75q-3.0 -1.75 -4.765625 -4.765625q-1.75 -3.03125 -1.75 -6.828125q0 -3.78125 1.609375 -6.78125q1.609375 -3.0 4.390625 -4.75q2.796875 -1.765625 6.296875 -1.765625q2.828125 0 5.21875 1.1875q2.40625 1.171875 4.046875 3.1875l0 -12.96875q0 -1.09375 0.6875 -1.765625q0.703125 -0.671875 1.75 -0.671875q1.109375 0 1.78125 0.671875q0.671875 0.671875 0.671875 1.765625l0 21.890625q0 3.796875 -1.75 6.828125q-1.75 3.015625 -4.734375 4.765625q-2.96875 1.75 -6.71875 1.75zm0 -4.3125q2.453125 0 4.375 -1.171875q1.921875 -1.1875 3.015625 -3.25q1.109375 -2.0625 1.109375 -4.609375q0 -2.59375 -1.109375 -4.609375q-1.09375 -2.015625 -3.015625 -3.1875q-1.921875 -1.171875 -4.375 -1.171875q-2.390625 0 -4.34375 1.171875q-1.9375 1.171875 -3.0625 3.1875q-1.125 2.015625 -1.125 4.609375q0 2.546875 1.125 4.609375q1.125 2.0625 3.0625 3.25q1.953125 1.171875 4.34375 1.171875zm32.884674 4.359375q-3.3125 0 -5.9375 -1.40625q-2.609375 -1.421875 -4.125 -4.15625q-1.5 -2.734375 -1.5 -6.71875l0 -11.8125q0 -1.046875 0.6875 -1.734375q0.703125 -0.703125 1.75 -0.703125q1.0625 0 1.75 0.703125q0.703125 0.6875 0.703125 1.734375l0 11.8125q0 2.6875 1.0 4.4375q1.015625 1.75 2.734375 2.59375q1.734375 0.84375 3.890625 0.84375q2.078125 0 3.671875 -0.8125q1.609375 -0.828125 2.5625 -2.21875q0.96875 -1.390625 0.96875 -3.109375l3.03125 0q0 2.96875 -1.46875 5.375q-1.46875 2.390625 -3.984375 3.78125q-2.515625 1.390625 -5.734375 1.390625zm10.609375 -0.234375q-1.0625 0 -1.765625 -0.6875q-0.6875 -0.703125 -0.6875 -1.765625l0 -21.40625q0 -1.09375 0.6875 -1.765625q0.703125 -0.671875 1.765625 -0.671875q1.109375 0 1.78125 0.671875q0.671875 0.671875 0.671875 1.765625l0 21.40625q0 1.0625 -0.671875 1.765625q-0.671875 0.6875 -1.78125 0.6875zm17.329834 0q-2.109375 0 -3.75 -1.140625q-1.625 -1.15625 -2.546875 -3.140625q-0.90625 -2.0 -0.90625 -4.59375l0 -26.21875q0 -1.046875 0.671875 -1.71875q0.671875 -0.671875 1.734375 -0.671875q1.046875 0 1.71875 0.671875q0.671875 0.671875 0.671875 1.71875l0 26.21875q0 1.765625 0.671875 2.921875q0.671875 1.15625 1.734375 1.15625l1.203125 0q0.953125 0 1.546875 0.671875q0.609375 0.671875 0.609375 1.71875q0 1.0625 -0.921875 1.734375q-0.90625 0.671875 -2.34375 0.671875l-0.09375 0zm19.053772 0.1875q-3.984375 0 -7.078125 -1.703125q-3.09375 -1.703125 -4.859375 -4.703125q-1.75 -3.0 -1.75 -6.890625q0 -3.9375 1.65625 -6.9375q1.65625 -3.0 4.578125 -4.703125q2.9375 -1.703125 6.734375 -1.703125q3.75 0 6.4375 1.65625q2.6875 1.65625 4.09375 4.5625q1.421875 2.90625 1.421875 6.703125q0 0.90625 -0.625 1.515625q-0.625 0.59375 -1.578125 0.59375l-19.34375 0l0 -3.84375l19.1875 0l-1.96875 1.34375q-0.046875 -2.390625 -0.953125 -4.28125q-0.90625 -1.90625 -2.59375 -3.0q-1.671875 -1.109375 -4.078125 -1.109375q-2.734375 0 -4.6875 1.203125q-1.9375 1.1875 -2.953125 3.28125q-1.0 2.078125 -1.0 4.71875q0 2.640625 1.203125 4.703125q1.203125 2.0625 3.3125 3.265625q2.109375 1.203125 4.84375 1.203125q1.484375 0 3.046875 -0.546875q1.5625 -0.5625 2.515625 -1.28125q0.71875 -0.515625 1.5625 -0.546875q0.84375 -0.03125 1.46875 0.5q0.8125 0.71875 0.859375 1.59375q0.046875 0.859375 -0.765625 1.484375q-1.625 1.296875 -4.0625 2.109375q-2.421875 0.8125 -4.625 0.8125zm42.18457 -0.1875q-3.59375 0 -6.375 -1.515625q-2.78125 -1.515625 -4.375 -4.125q-1.578125 -2.609375 -1.578125 -5.875q0 -1.109375 0.640625 -1.796875q0.65625 -0.703125 1.5625 -0.703125q0.96875 0 1.59375 0.703125q0.625 0.6875 0.625 1.796875q0 1.96875 1.0 3.625q1.015625 1.65625 2.734375 2.640625q1.734375 0.984375 3.890625 0.984375q3.171875 0 5.109375 -1.75q1.953125 -1.765625 1.953125 -4.921875q0 -2.015625 -0.875 -3.625q-0.859375 -1.609375 -2.34375 -2.5625q-1.484375 -0.96875 -3.359375 -0.96875q-1.0625 0 -1.765625 -0.71875q-0.6875 -0.71875 -0.6875 -1.78125q0 -1.046875 0.6875 -1.75q0.703125 -0.703125 1.765625 -0.703125q1.34375 0 2.59375 -0.6875q1.25 -0.703125 2.0625 -1.875q0.8125 -1.171875 0.8125 -2.65625q0 -2.125 -1.546875 -3.5625q-1.53125 -1.4375 -3.921875 -1.4375q-1.828125 0 -3.34375 0.71875q-1.515625 0.71875 -2.40625 1.921875q-0.875 1.203125 -0.875 2.6875q0 1.109375 -0.625 1.859375q-0.625 0.734375 -1.578125 0.734375q-0.921875 0 -1.578125 -0.6875q-0.640625 -0.703125 -0.640625 -1.765625q0 -2.78125 1.4375 -4.984375q1.453125 -2.203125 3.9375 -3.46875q2.5 -1.28125 5.578125 -1.28125q2.828125 0 5.109375 1.21875q2.28125 1.21875 3.59375 3.3125q1.328125 2.09375 1.328125 4.734375q0 1.859375 -0.84375 3.3125q-0.84375 1.4375 -2.140625 2.46875q-1.296875 1.03125 -2.734375 1.703125q2.546875 0.859375 4.125 2.328125q1.59375 1.46875 2.328125 3.390625q0.75 1.90625 0.75 4.171875q0 3.109375 -1.59375 5.59375q-1.578125 2.46875 -4.21875 3.890625q-2.640625 1.40625 -5.8125 1.40625zm32.019226 -10.703125q-1.046875 0 -1.75 -0.671875q-0.6875 -0.671875 -0.6875 -1.734375q0 -1.09375 0.6875 -1.765625q0.703125 -0.671875 1.75 -0.671875l10.703125 0q1.0625 0 1.734375 0.671875q0.671875 0.671875 0.671875 1.765625q0 1.0625 -0.671875 1.734375q-0.671875 0.671875 -1.734375 0.671875l-10.703125 0zm35.95703 10.703125q-1.0625 0 -1.78125 -0.71875q-0.71875 -0.71875 -0.71875 -1.78125l0 -32.484375q0 -1.109375 0.71875 -1.796875q0.71875 -0.703125 1.78125 -0.703125l21.6875 0q1.109375 0 1.78125 0.65625q0.671875 0.640625 0.671875 1.6875q0 1.015625 -0.671875 1.640625q-0.671875 0.625 -1.78125 0.625l-19.1875 0l0 11.65625l13.765625 0q1.109375 0 1.78125 0.65625q0.671875 0.640625 0.671875 1.65625q0 1.0 -0.671875 1.65625q-0.671875 0.640625 -1.78125 0.640625l-13.765625 0l0 12.0l19.1875 0q1.109375 0 1.78125 0.625q0.671875 0.625 0.671875 1.625q0 1.0625 -0.671875 1.71875q-0.671875 0.640625 -1.78125 0.640625l-21.6875 0zm39.506348 -0.046875q-1.484375 0 -2.3125 -1.578125l-10.171875 -21.46875q-0.375 -0.8125 -0.078125 -1.59375q0.3125 -0.796875 1.234375 -1.234375q0.8125 -0.4375 1.65625 -0.140625q0.84375 0.28125 1.265625 1.109375l9.5 20.484375l-2.296875 0l9.40625 -20.484375q0.4375 -0.828125 1.3125 -1.109375q0.890625 -0.296875 1.8125 0.140625q0.859375 0.390625 1.140625 1.203125q0.296875 0.8125 -0.09375 1.625l-10.171875 21.46875q-0.71875 1.578125 -2.203125 1.578125zm27.406555 0.234375q-3.5 0 -6.296875 -1.75q-2.78125 -1.75 -4.390625 -4.75q-1.609375 -3.0 -1.609375 -6.796875q0 -3.78125 1.75 -6.796875q1.765625 -3.03125 4.765625 -4.78125q3.0 -1.765625 6.734375 -1.765625q3.75 0 6.71875 1.765625q2.984375 1.75 4.734375 4.78125q1.75 3.015625 1.75 6.796875l-1.875 0q0 3.796875 -1.609375 6.796875q-1.59375 3.0 -4.390625 4.75q-2.78125 1.75 -6.28125 1.75zm0.953125 -4.3125q2.453125 0 4.375 -1.171875q1.921875 -1.1875 3.015625 -3.21875q1.109375 -2.046875 1.109375 -4.59375q0 -2.59375 -1.109375 -4.625q-1.09375 -2.046875 -3.015625 -3.21875q-1.921875 -1.171875 -4.375 -1.171875q-2.390625 0 -4.34375 1.171875q-1.9375 1.171875 -3.0625 3.21875q-1.125 2.03125 -1.125 4.625q0 2.546875 1.125 4.59375q1.125 2.03125 3.0625 3.21875q1.953125 1.171875 4.34375 1.171875zm10.75 4.171875q-1.046875 0 -1.75 -0.6875q-0.6875 -0.703125 -0.6875 -1.765625l0 -7.34375l0.90625 -5.078125l3.984375 1.71875l0 10.703125q0 1.0625 -0.703125 1.765625q-0.6875 0.6875 -1.75 0.6875zm15.993835 -0.046875q-2.109375 0 -3.75 -1.140625q-1.625 -1.15625 -2.546875 -3.140625q-0.90625 -2.0 -0.90625 -4.59375l0 -26.21875q0 -1.046875 0.671875 -1.71875q0.671875 -0.671875 1.734375 -0.671875q1.046875 0 1.71875 0.671875q0.671875 0.671875 0.671875 1.71875l0 26.21875q0 1.765625 0.671875 2.921875q0.671875 1.15625 1.734375 1.15625l1.203125 0q0.953125 0 1.546875 0.671875q0.609375 0.671875 0.609375 1.71875q0 1.0625 -0.921875 1.734375q-0.90625 0.671875 -2.34375 0.671875l-0.09375 0zm19.1969 0.234375q-3.3125 0 -5.9375 -1.40625q-2.609375 -1.421875 -4.125 -4.15625q-1.5 -2.734375 -1.5 -6.71875l0 -11.8125q0 -1.046875 0.6875 -1.734375q0.703125 -0.703125 1.75 -0.703125q1.0625 0 1.75 0.703125q0.703125 0.6875 0.703125 1.734375l0 11.8125q0 2.6875 1.0 4.4375q1.015625 1.75 2.734375 2.59375q1.734375 0.84375 3.890625 0.84375q2.078125 0 3.671875 -0.8125q1.609375 -0.828125 2.5625 -2.21875q0.96875 -1.390625 0.96875 -3.109375l3.03125 0q0 2.96875 -1.46875 5.375q-1.46875 2.390625 -3.984375 3.78125q-2.515625 1.390625 -5.734375 1.390625zm10.609375 -0.234375q-1.0625 0 -1.765625 -0.6875q-0.6875 -0.703125 -0.6875 -1.765625l0 -21.40625q0 -1.09375 0.6875 -1.765625q0.703125 -0.671875 1.765625 -0.671875q1.109375 0 1.78125 0.671875q0.671875 0.671875 0.671875 1.765625l0 21.40625q0 1.0625 -0.671875 1.765625q-0.671875 0.6875 -1.78125 0.6875zm22.032959 0.1875q-3.5 0 -6.296875 -1.75q-2.78125 -1.75 -4.390625 -4.75q-1.609375 -3.0 -1.609375 -6.796875q0 -3.78125 1.75 -6.796875q1.765625 -3.03125 4.765625 -4.78125q3.0 -1.765625 6.734375 -1.765625q3.75 0 6.71875 1.765625q2.984375 1.75 4.734375 4.78125q1.75 3.015625 1.75 6.796875l-1.875 0q0 3.796875 -1.609375 6.796875q-1.59375 3.0 -4.390625 4.75q-2.78125 1.75 -6.28125 1.75zm0.953125 -4.3125q2.453125 0 4.375 -1.171875q1.921875 -1.1875 3.015625 -3.21875q1.109375 -2.046875 1.109375 -4.59375q0 -2.59375 -1.109375 -4.625q-1.09375 -2.046875 -3.015625 -3.21875q-1.921875 -1.171875 -4.375 -1.171875q-2.390625 0 -4.34375 1.171875q-1.9375 1.171875 -3.0625 3.21875q-1.125 2.03125 -1.125 4.625q0 2.546875 1.125 4.59375q1.125 2.03125 3.0625 3.21875q1.953125 1.171875 4.34375 1.171875zm10.75 4.171875q-1.046875 0 -1.75 -0.6875q-0.6875 -0.703125 -0.6875 -1.765625l0 -7.34375l0.90625 -5.078125l3.984375 1.71875l0 10.703125q0 1.0625 -0.703125 1.765625q-0.6875 0.6875 -1.75 0.6875zm19.306335 -0.046875q-2.40625 0 -4.328125 -1.21875q-1.921875 -1.234375 -3.03125 -3.34375q-1.09375 -2.109375 -1.09375 -4.75l0 -22.890625q0 -1.0625 0.671875 -1.734375q0.671875 -0.671875 1.734375 -0.671875q1.046875 0 1.71875 0.671875q0.671875 0.671875 0.671875 1.734375l0 22.890625q0 1.921875 1.0625 3.21875q1.0625 1.296875 2.59375 1.296875l1.625 0q0.875 0 1.46875 0.671875q0.59375 0.671875 0.59375 1.71875q0 1.0625 -0.796875 1.734375q-0.78125 0.671875 -2.03125 0.671875l-0.859375 0zm-10.65625 -21.171875q-1.015625 0 -1.640625 -0.5625q-0.625 -0.578125 -0.625 -1.453125q0 -0.953125 0.625 -1.53125q0.625 -0.578125 1.640625 -0.578125l11.078125 0q1.015625 0 1.640625 0.578125q0.625 0.578125 0.625 1.53125q0 0.875 -0.625 1.453125q-0.625 0.5625 -1.640625 0.5625l-11.078125 0zm23.279297 21.171875q-1.0625 0 -1.765625 -0.6875q-0.6875 -0.703125 -0.6875 -1.765625l0 -21.359375q0 -1.09375 0.6875 -1.765625q0.703125 -0.671875 1.765625 -0.671875q1.109375 0 1.78125 0.671875q0.671875 0.671875 0.671875 1.765625l0 21.359375q0 1.0625 -0.671875 1.765625q-0.671875 0.6875 -1.78125 0.6875zm0 -30.53125q-1.296875 0 -2.234375 -0.9375q-0.9375 -0.9375 -0.9375 -2.234375q0 -1.28125 0.9375 -2.21875q0.9375 -0.9375 2.234375 -0.9375q1.28125 0 2.21875 0.9375q0.9375 0.9375 0.9375 2.21875q0 1.296875 -0.9375 2.234375q-0.9375 0.9375 -2.21875 0.9375zm23.464783 30.71875q-3.875 0 -6.859375 -1.703125q-2.96875 -1.703125 -4.6875 -4.703125q-1.703125 -3.0 -1.703125 -6.890625q0 -3.9375 1.703125 -6.9375q1.71875 -3.0 4.6875 -4.703125q2.984375 -1.703125 6.859375 -1.703125q3.84375 0 6.8125 1.703125q2.984375 1.703125 4.6875 4.703125q1.703125 3.0 1.703125 6.9375q0 3.890625 -1.6875 6.890625q-1.671875 3.0 -4.65625 4.703125q-2.96875 1.703125 -6.859375 1.703125zm0 -4.3125q2.5 0 4.421875 -1.15625q1.921875 -1.15625 3.0 -3.171875q1.078125 -2.015625 1.078125 -4.65625q0 -2.640625 -1.078125 -4.671875q-1.078125 -2.046875 -3.0 -3.1875q-1.921875 -1.15625 -4.421875 -1.15625q-2.484375 0 -4.40625 1.15625q-1.921875 1.140625 -3.03125 3.1875q-1.09375 2.03125 -1.09375 4.671875q0 2.640625 1.09375 4.65625q1.109375 2.015625 3.03125 3.171875q1.921875 1.15625 4.40625 1.15625zm42.681335 4.171875q-1.0625 0 -1.765625 -0.6875q-0.6875 -0.703125 -0.6875 -1.765625l0 -11.796875q0 -2.734375 -1.015625 -4.46875q-1.0 -1.734375 -2.703125 -2.5625q-1.703125 -0.84375 -3.90625 -0.84375q-2.015625 0 -3.65625 0.8125q-1.625 0.8125 -2.59375 2.1875q-0.953125 1.359375 -0.953125 3.140625l-3.03125 0q0 -3.015625 1.46875 -5.390625q1.46875 -2.390625 4.0 -3.78125q2.546875 -1.390625 5.71875 -1.390625q3.3125 0 5.921875 1.421875q2.625 1.421875 4.125 4.15625q1.515625 2.734375 1.515625 6.71875l0 11.796875q0 1.0625 -0.703125 1.765625q-0.6875 0.6875 -1.734375 0.6875zm-19.734375 0q-1.046875 0 -1.75 -0.6875q-0.703125 -0.703125 -0.703125 -1.765625l0 -21.40625q0 -1.09375 0.703125 -1.765625q0.703125 -0.671875 1.75 -0.671875q1.109375 0 1.78125 0.671875q0.671875 0.671875 0.671875 1.765625l0 21.40625q0 1.0625 -0.671875 1.765625q-0.671875 0.6875 -1.78125 0.6875z" fill-rule="nonzero"/><path fill="#000000" fill-opacity="0.0" d="m50.712757 434.25986l1128.8503 0l0 32.31494l-1128.8503 0z" fill-rule="evenodd"/></g></svg>