<svg version="1.1" viewBox="0.0 0.0 1280.0 720.0" fill="none" stroke="none" stroke-linecap="square" stroke-miterlimit="10" xmlns:xlink="http://www.w3.org/1999/xlink" xmlns="http://www.w3.org/2000/svg"><clipPath id="g12242691cb8_1_0.0"><path d="m0 0l1280.0 0l0 720.0l-1280.0 0l0 -720.0z" clip-rule="nonzero"/></clipPath><g clip-path="url(#g12242691cb8_1_0.0)"><path fill="#c4a15a" d="m0 0l1280.0 0l0 720.0l-1280.0 0z" fill-rule="evenodd"/><path fill="#ffffff" d="m1280.0 720.0l0 -396.7244l-614.07874 396.7244z" fill-rule="evenodd"/><path fill="#c4a15a" d="m915.53925 719.9967l261.54547 -165.50995l13.341431 0l-261.5454 165.50995z" fill-rule="evenodd"/><path fill="#c4a15a" d="m849.30194 719.9967l261.54547 -165.50995l13.341431 0l-261.5454 165.50995z" fill-rule="evenodd"/><path fill="#c4a15a" d="m783.06464 719.9967l261.54547 -165.50995l13.341431 0l-261.5454 165.50995z" fill-rule="evenodd"/><path fill="#233a44" d="m155.15843 151.64143l239.62941 -151.64114l24.430573 0l-239.6294 151.64114z" fill-rule="evenodd"/><path fill="#233a44" d="m91.53 151.64143l239.6294 -151.64114l24.430573 0l-239.6294 151.64114z" fill-rule="evenodd"/><path fill="#233a44" d="m27.901562 151.64143l239.62938 -151.64114l24.430603 0l-239.62941 151.64114z" fill-rule="evenodd"/><path fill="#000000" fill-opacity="0.0" d="m263.62204 313.7009l752.75586 0l0 92.59842l-752.75586 0z" fill-rule="evenodd"/><path fill="#002060" d="m501.60303 389.9153q-1.25 0 -2.109375 -0.859375q-0.859375 -0.859375 -0.859375 -2.125l0 -41.78125l5.953125 0l0 41.78125q0 1.265625 -0.859375 2.125q-0.859375 0.859375 -2.125 0.859375zm-15.359375 -39.265625q-1.203125 0 -1.984375 -0.765625q-0.765625 -0.78125 -0.765625 -1.984375q0 -1.203125 0.765625 -1.96875q0.78125 -0.78125 1.984375 -0.78125l30.671875 0q1.203125 0 1.96875 0.78125q0.78125 0.765625 0.78125 1.96875q0 1.203125 -0.78125 1.984375q-0.765625 0.765625 -1.96875 0.765625l-30.671875 0zm42.362732 27.859375q-1.25 0 -2.09375 -0.828125q-0.828125 -0.84375 -0.828125 -2.09375l0 -27.515625q0 -1.328125 0.828125 -2.125q0.84375 -0.796875 2.09375 -0.796875q1.328125 0 2.125 0.796875q0.796875 0.796875 0.796875 2.125l0 27.515625q0 1.25 -0.796875 2.09375q-0.796875 0.828125 -2.125 0.828125zm23.5625 11.46875q-1.25 0 -2.09375 -0.828125q-0.828125 -0.84375 -0.828125 -2.09375l0 -14.109375q0 -3.265625 -1.203125 -5.328125q-1.203125 -2.0625 -3.234375 -3.0625q-2.03125 -1.015625 -4.671875 -1.015625q-2.40625 0 -4.359375 0.984375q-1.953125 0.96875 -3.109375 2.609375q-1.140625 1.625 -1.140625 3.75l-3.609375 0q0 -3.609375 1.75 -6.4375q1.75 -2.84375 4.78125 -4.5q3.046875 -1.671875 6.828125 -1.671875q3.953125 0 7.078125 1.6875q3.125 1.6875 4.921875 4.953125q1.8125 3.265625 1.8125 8.03125l0 14.109375q0 1.25 -0.828125 2.09375q-0.828125 0.828125 -2.09375 0.828125zm-23.5625 0q-1.25 0 -2.09375 -0.828125q-0.828125 -0.84375 -0.828125 -2.09375l0 -25.578125q0 -1.3125 0.828125 -2.109375q0.84375 -0.8125 2.09375 -0.8125q1.328125 0 2.125 0.8125q0.796875 0.796875 0.796875 2.109375l0 25.578125q0 1.25 -0.796875 2.09375q-0.796875 0.828125 -2.125 0.828125zm49.3114 0.171875q-4.1875 0 -7.515625 -2.09375q-3.328125 -2.09375 -5.25 -5.671875q-1.921875 -3.59375 -1.921875 -8.125q0 -4.515625 2.09375 -8.125q2.09375 -3.625 5.671875 -5.71875q3.59375 -2.09375 8.0625 -2.09375q4.46875 0 8.015625 2.09375q3.5625 2.09375 5.65625 5.71875q2.09375 3.609375 2.09375 8.125l-2.234375 0q0 4.53125 -1.921875 8.125q-1.921875 3.578125 -5.25 5.671875q-3.3125 2.09375 -7.5 2.09375zm1.140625 -5.171875q2.921875 0 5.21875 -1.390625q2.296875 -1.40625 3.609375 -3.84375q1.328125 -2.4375 1.328125 -5.484375q0 -3.09375 -1.328125 -5.53125q-1.3125 -2.4375 -3.609375 -3.828125q-2.296875 -1.40625 -5.21875 -1.40625q-2.859375 0 -5.1875 1.40625q-2.328125 1.390625 -3.671875 3.828125q-1.34375 2.4375 -1.34375 5.53125q0 3.046875 1.34375 5.484375q1.34375 2.4375 3.671875 3.84375q2.328125 1.390625 5.1875 1.390625zm12.84375 5.0q-1.265625 0 -2.09375 -0.828125q-0.828125 -0.84375 -0.828125 -2.09375l0 -8.78125l1.09375 -6.078125l4.75 2.0625l0 12.796875q0 1.25 -0.828125 2.09375q-0.828125 0.828125 -2.09375 0.828125zm38.11847 0q-1.25 0 -2.09375 -0.828125q-0.828125 -0.84375 -0.828125 -2.09375l0 -14.109375q0 -3.265625 -1.203125 -5.328125q-1.203125 -2.0625 -3.234375 -3.0625q-2.03125 -1.015625 -4.671875 -1.015625q-2.40625 0 -4.359375 0.984375q-1.953125 0.96875 -3.109375 2.609375q-1.140625 1.625 -1.140625 3.75l-3.609375 0q0 -3.609375 1.75 -6.4375q1.75 -2.84375 4.78125 -4.5q3.046875 -1.671875 6.828125 -1.671875q3.953125 0 7.078125 1.6875q3.125 1.6875 4.921875 4.953125q1.8125 3.265625 1.8125 8.03125l0 14.109375q0 1.25 -0.828125 2.09375q-0.828125 0.828125 -2.09375 0.828125zm-23.5625 0q-1.25 0 -2.09375 -0.828125q-0.828125 -0.84375 -0.828125 -2.09375l0 -25.578125q0 -1.3125 0.828125 -2.109375q0.84375 -0.8125 2.09375 -0.8125q1.328125 0 2.125 0.8125q0.796875 0.796875 0.796875 2.109375l0 25.578125q0 1.25 -0.796875 2.09375q-0.796875 0.828125 -2.125 0.828125zm41.675964 -11.53125l-3.546875 -3.890625l17.59375 -15.71875q0.859375 -0.796875 1.921875 -0.734375q1.0625 0.046875 1.8125 0.90625q0.796875 0.859375 0.734375 1.90625q-0.046875 1.03125 -0.90625 1.828125l-17.609375 15.703125zm-2.6875 11.46875q-1.265625 0 -2.046875 -0.765625q-0.765625 -0.78125 -0.765625 -2.046875l0 -39.15625q0 -1.25 0.765625 -2.015625q0.78125 -0.78125 2.046875 -0.78125q1.265625 0 2.03125 0.78125q0.78125 0.765625 0.78125 2.015625l0 39.15625q0 1.265625 -0.78125 2.046875q-0.765625 0.765625 -2.03125 0.765625zm20.46875 -0.28125q-0.921875 0.734375 -2.046875 0.640625q-1.109375 -0.078125 -1.859375 -0.984375l-11.625 -14.390625l4.0 -3.78125l11.9375 14.671875q0.734375 0.921875 0.640625 1.984375q-0.078125 1.046875 -1.046875 1.859375zm40.120056 0.28125q-1.203125 0 -2.0625 -0.859375q-0.859375 -0.859375 -0.859375 -2.125l0 -13.359375l-15.296875 -23.78125q-0.75 -1.203125 -0.578125 -2.265625q0.171875 -1.0625 1.0 -1.71875q0.828125 -0.65625 1.921875 -0.65625q0.984375 0 1.546875 0.4375q0.578125 0.421875 1.09375 1.21875l14.5625 23.109375l-2.296875 0l14.796875 -23.34375q0.453125 -0.6875 1.078125 -1.046875q0.640625 -0.375 1.546875 -0.375q1.03125 0 1.71875 0.71875q0.703125 0.703125 0.8125 1.765625q0.109375 1.0625 -0.578125 2.15625l-15.421875 23.78125l0 13.359375q0 1.265625 -0.859375 2.125q-0.859375 0.859375 -2.125 0.859375zm32.91095 0.234375q-4.640625 0 -8.203125 -2.03125q-3.546875 -2.046875 -5.59375 -5.625q-2.03125 -3.578125 -2.03125 -8.234375q0 -4.6875 2.03125 -8.265625q2.046875 -3.59375 5.59375 -5.625q3.5625 -2.046875 8.203125 -2.046875q4.59375 0 8.140625 2.046875q3.5625 2.03125 5.59375 5.625q2.03125 3.578125 2.03125 8.265625q0 4.65625 -2.015625 8.234375q-2.0 3.578125 -5.5625 5.625q-3.546875 2.03125 -8.1875 2.03125zm0 -5.171875q2.984375 0 5.265625 -1.375q2.296875 -1.375 3.59375 -3.78125q1.296875 -2.40625 1.296875 -5.5625q0 -3.140625 -1.296875 -5.578125q-1.296875 -2.4375 -3.59375 -3.8125q-2.28125 -1.375 -5.265625 -1.375q-2.984375 0 -5.28125 1.375q-2.28125 1.375 -3.609375 3.8125q-1.3125 2.4375 -1.3125 5.578125q0 3.15625 1.3125 5.5625q1.328125 2.40625 3.609375 3.78125q2.296875 1.375 5.28125 1.375zm37.665344 5.21875q-3.953186 0 -7.078186 -1.6875q-3.125 -1.6875 -4.9375 -4.953125q-1.796875 -3.265625 -1.796875 -8.03125l0 -14.09375q0 -1.265625 0.828125 -2.09375q0.828125 -0.84375 2.09375 -0.84375q1.265625 0 2.09375 0.84375q0.828125 0.828125 0.828125 2.09375l0 14.09375q0 3.21875 1.203125 5.3125q1.203125 2.078125 3.265625 3.09375q2.0625 1.0 4.640686 1.0q2.46875 0 4.390625 -0.96875q1.921875 -0.984375 3.0625 -2.640625q1.15625 -1.671875 1.15625 -3.734375l3.609375 0q0 3.5625 -1.75 6.4375q-1.75 2.859375 -4.765625 4.515625q-3.0 1.65625 -6.84375 1.65625zm12.671875 -0.28125q-1.265625 0 -2.09375 -0.828125q-0.828125 -0.828125 -0.828125 -2.09375l0 -25.5625q0 -1.328125 0.828125 -2.125q0.828125 -0.8125 2.09375 -0.8125q1.3125 0 2.109375 0.8125q0.8125 0.796875 0.8125 2.125l0 25.5625q0 1.265625 -0.8125 2.09375q-0.796875 0.828125 -2.109375 0.828125z" fill-rule="nonzero"/></g></svg>